# xmcd
#
# Track frame offsets:
#	150
#	18718
#	34118
#	44724
#	58071
#	68783
#	86840
#	101941
#	116331
#	133965
#	156388
#	170448
#	186988
#	205229
#
# Disc length: 2939 seconds
#
# Revision: 0
# Processed by: cddbd v1.5PL3 Copyright (c) Steve Scherf et al.
# Submitted via: dBpowerAMP V4.0
#
DISCID=d70b790e
DTITLE=GILSON and JUNIOR - No Bailão Ao Vivo
DYEAR=1900
DGENRE=Country
TTITLE0=Lorota, O Trem Tá Bom, Só Alegria, Lorota
TTITLE1=O Pobre E O Rico
TTITLE2=Estrada Do Amor
TTITLE3=Carminha
TTITLE4=Toca Sanfoneiro
TTITLE5=Pagode Em Brasília, A Vaca Foi Pro Brejo, O Menino Da Porteira
TTITLE6=O Cheiro Dela
TTITLE7=Mulher De Amigo Meu
TTITLE8=Menina Linda
TTITLE9=Viva A Vida, To Doidão, O Tropeiro
TTITLE10=Eutrepssemia (Doença De Gato)
TTITLE11=Mulher Que Não Dá Voa
TTITLE12=Coração Cigano
TTITLE13=Tchau Amor
EXTD=
EXTT0=
EXTT1=
EXTT2=
EXTT3=
EXTT4=
EXTT5=
EXTT6=
EXTT7=
EXTT8=
EXTT9=
EXTT10=
EXTT11=
EXTT12=
EXTT13=
PLAYORDER=
